<svg width="200" height="200" viewBox="0 0 200 200" fill="none" xmlns="http://www.w3.org/2000/svg">
<path d="M171.712 100.153C171.712 139.758 139.606 171.865 100 171.865C60.3947 171.865 28.2881 139.758 28.2881 100.153C28.2881 60.5471 60.3947 28.4404 100 28.4404C129.272 28.4404 154.448 45.9787 165.592 71.1203L172.705 67.5688C160.251 39.8236 132.382 20.5 100 20.5C56.0093 20.5 20.3477 56.1617 20.3477 100.153C20.3477 144.144 56.0093 179.805 100 179.805C143.991 179.805 179.653 144.144 179.653 100.153H171.712Z" fill="white"/>
<path d="M158.172 100.153C158.172 132.28 132.127 158.324 100 158.324C67.8733 158.324 41.8291 132.28 41.8291 100.153C41.8291 68.0256 67.8733 41.9815 100 41.9815C126.259 41.9815 148.455 59.3806 155.687 83.2792L161.094 74.8424C151.159 50.8889 127.547 34.041 100 34.041C63.4879 34.041 33.8887 63.6402 33.8887 100.153C33.8887 136.665 63.4879 166.264 100 166.264C136.513 166.264 166.112 136.665 166.112 100.153C166.112 99.4886 166.102 98.8268 166.083 98.1675L157.919 94.6935C158.086 96.4908 158.172 98.3117 158.172 100.153Z" fill="white"/>
<path d="M191.152 43.2795C192.117 44.8212 192.775 47.9461 190.649 53.8476C188.938 58.5961 185.702 64.2723 180.899 70.6241L187.609 74.9132C198.71 60.0715 202.94 47.1498 197.883 39.0676C191.303 28.5521 170.459 28.5578 143.471 37.1253L150.372 43.331C152.526 42.7111 154.628 42.1539 156.674 41.6603C166.901 39.1926 175.271 38.4245 181.405 39.0913C187.654 39.7706 190.185 41.7345 191.152 43.2795Z" fill="white"/>
<path d="M8.84816 157.026C7.88349 155.484 7.22543 152.359 9.35123 146.458C11.0394 141.771 14.2141 136.181 18.914 129.929L12.5243 125.215C1.32388 140.131 -2.96052 153.123 2.11686 161.238C13.366 179.216 66.3091 166.441 120.368 132.704C137.138 122.239 152.045 110.986 164.296 99.9045L158.561 94.3844C146.799 104.974 132.429 115.818 116.165 125.968C89.6566 142.511 63.695 153.73 43.3263 158.645C33.0994 161.113 24.7288 161.881 18.5955 161.214C12.346 160.535 9.81492 158.571 8.84816 157.026Z" fill="white"/>
<circle cx="174.193" cy="86.0087" r="16.8734" stroke="white" stroke-width="7.94045"/>
<path d="M25.8066 127.696C18.6803 127.696 12.9033 121.919 12.9033 114.793C12.9033 107.667 18.6803 101.89 25.8066 101.89V93.9492C14.2949 93.9492 4.96289 103.281 4.96289 114.793C4.96289 126.305 14.2949 135.637 25.8066 135.637C28.4293 135.637 30.9389 135.152 33.2507 134.268L30.4141 126.851C28.9937 127.395 27.4446 127.696 25.8066 127.696Z" fill="white"/>
</svg>
